# AST/ASF file generated using VICON BodyLanguage
# -----------------------------------------------
:version 1.10
:name VICON
:units
  mass 1.0
  length 0.45
  angle deg
:documentation
   .ast/.asf automatically generated from VICON data using
   VICON BodyBuilder and BodyLanguage model FoxedUp or BRILLIANT.MOD
:root
   order TX TY TZ RX RY RZ
   axis XYZ
   position 0 0 0  
   orientation 0 0 0 
:bonedata
  begin
     id 1 
     name lhipjoint
     direction 0.611804 -0.747784 0.257906 
     length 2.29243 
     axis 0 0 0  XYZ
  end
  begin
     id 2 
     name lfemur
     direction 0.34202 -0.939693 0  
     length 7.31159  
     axis 0 0 20  XYZ
    dof rx ry rz
    limits (-160.0 20.0)
           (-70.0 70.0)
           (-60.0 70.0)
  end
  begin
     id 3 
     name ltibia
     direction 0.34202 -0.939693 0   
     length 7.33391   
     axis 0 0 20   XYZ
    dof rx
    limits (-10.0 170.0)
  end
  begin
     id 4 
     name lfoot
     direction 0.122263 -0.335914 0.933924   
     length 1.76083   
     axis -90 7.62852e-016 20   XYZ
    dof rx rz
    limits (-45.0 90.0)
           (-70.0 20.0)
  end
  begin
     id 5 
     name ltoes
     direction 1.53533e-011 -4.2177e-011 1   
     length 0.879206   
     axis -90 7.62852e-016 20   XYZ
    dof rx
    limits (-90.0 20.0)
  end
  begin
     id 6 
     name rhipjoint
     direction -0.646469 -0.721248 0.248754   
     length 2.37677  
     axis 0 0 0  XYZ 
  end
  begin
     id 7 
     name rfemur
     direction -0.34202 -0.939693 0   
     length 7.18623   
     axis 0 0 -20   XYZ
    dof rx ry rz
    limits (-160.0 20.0)
           (-70.0 70.0)
           (-70.0 60.0)
  end
  begin
     id 8 
     name rtibia
     direction -0.34202 -0.939693 0   
     length 7.36567   
     axis 0 0 -20   XYZ
    dof rx
    limits (-10.0 170.0)
 end
 begin
     id 9 
     name rfoot
     direction -0.126681 -0.348054 0.928876   
     length 1.71902  
     axis -90 -7.62852e-016 -20   XYZ
    dof rx rz
    limits (-45.0 90.0)
           (-20.0 70.0)
  end
  begin
     id 10 
     name rtoes
     direction -1.53551e-011 -4.21898e-011 1   
     length 0.857792   
     axis -90 -7.62852e-016 -20   XYZ
    dof rx
    limits (-90.0 20.0)
  end
  begin
     id 11 
     name lowerback
     direction 0.0106509 0.999778 0.0181844   
     length 2.07668   
     axis 0 0 0   XYZ
    dof rx ry rz
    limits (-20.0 45.0)
           (-30.0 30.0)
           (-30.0 30.0)
  end
  begin
     id 12 
     name upperback
     direction -0.00456018 0.999989 -0.000590935   
     length 2.08011   
     axis 0 0 0   XYZ
    dof rx ry rz
    limits (-20.0 45.0)
           (-30.0 30.0)
           (-30.0 30.0)
  end
  begin
     id 13 
     name thorax
     direction -0.00910382 0.999916 -0.00923765   
     length 2.07397   
     axis 0 0 0   XYZ
    dof rx ry rz
    limits (-20.0 45.0)
           (-30.0 30.0)
           (-30.0 30.0)
  end
  begin
     id 14 
     name lowerneck
     direction 0.00171967 0.99778 0.0665733   
     length 1.67556   
     axis 0 0 0   XYZ
    dof rx ry rz
    limits (-20.0 45.0)
           (-30.0 30.0)
           (-30.0 30.0)
  end
  begin
     id 15 
     name upperneck
     direction -0.0143166 0.991302 -0.130828   
     length 1.68462   
     axis 0 0 0   XYZ
    dof rx ry rz
    limits (-20.0 45.0)
           (-30.0 30.0)
           (-30.0 30.0)
  end
  begin
     id 16
     name head
     direction -0.00606378 0.998665 -0.0512995  
     length 1.69269  
     axis 0 0 0   XYZ
    dof rx ry rz
    limits (-20.0 45.0)
           (-30.0 30.0)
           (-30.0 30.0)
  end
  begin
     id 17 
     name lclavicle
     direction 0.9638 0.179341 0.197297  
     length 4.12888  
     axis 0 0 0   XYZ
    dof ry rz
    limits (-20.0 10.0)
           (0.0 20.0)
  end
  begin
     id 18 
     name lhumerus
     direction 1 -4.48972e-011 -2.47351e-027   
     length 5.01834   
     axis -180 -30 -90   XYZ
    dof rx ry rz
    limits (-60.0 90.0)
           (-90.0 90.0)
           (-90.0 90.0)
  end
  begin
     id 19
     name lradius
     direction 1 -4.48965e-011 1.51591e-026   
     length 3.4869   
     axis -180 -30 -90   XYZ
    dof rx
    limits (-10.0 170.0)
  end
  begin
     id 20
     name lwrist
     direction 1 -4.48957e-011 2.70032e-026   
     length 1.74345   
     axis -1.81515e-014 90 90   XYZ
    dof ry
    limits (-180.0 0.0)
 end
  begin
     id 21 
     name lhand
     direction 1 -4.48951e-011 5.40064e-026   
     length 0.76799   
     axis -3.44607e-014 90 90   XYZ
    dof rx rz
    limits (-90.0 90.0)
           (-45.0 45.0)
  end
  begin
     id 22 
     name lfingers
     direction 1 -4.48971e-011 1.08013e-025   
     length 0.619174   
     axis -6.89214e-014 90 90   XYZ
    dof rx
    limits (0.0 90.0)
  end
  begin
     id 23
     name lthumb
     direction 0.707107 -6.34931e-011 0.707107   
     length 0.889013   
     axis -90 45 2.85299e-015   XYZ
    dof rx rz
    limits (-45.0 45.0)
           (-45.0 45.0)
  end
  begin
     id 24 
     name rclavicle
     direction -0.961409 0.252588 0.109054   
     length 4.04305  
     axis 0 0 0   XYZ 
    dof ry rz
    limits (-10.0 20.0)
           (-20.0 0.0)
  end
  begin
     id 25 
     name rhumerus
     direction -1 -4.4897e-011 1.33872e-017  
     length 4.70164   
     axis -180 30 90   XYZ
    dof rx ry rz
    limits (-90.0 60.0)
           (-90.0 90.0)
           (-90.0 90.0)
  end
  begin
     id 26 
     name rradius
     direction -1 -4.48954e-011 1.83844e-026   
     length 3.49911   
     axis -180 30 90   XYZ
    dof rx
    limits (-10.0 170.0)
  end
  begin
     id 27 
     name rwrist
     direction -1 -4.49008e-011 2.70032e-026   
     length 1.74955   
     axis -1.81515e-014 -90 -90   XYZ
    dof ry
    limits (-180.0 0.0)
  end
  begin
     id 28
     name rhand
     direction -1 -4.48916e-011 5.40064e-026   
     length 0.739335   
     axis -3.44607e-014 -90 -90   XYZ
    dof rx rz
    limits (-90.0 90.0)
           (-45.0 45.0)
  end
  begin
     id 29
     name rfingers
     direction -1 -4.48987e-011 1.08013e-025   
     length 0.596071   
     axis -6.89214e-014 -90 -90   XYZ
    dof rx
    limits (0.0 90.0)
  end
  begin
     id 30
     name rthumb
     direction -0.707107 -6.34935e-011 0.707107   
     length 0.855843   
     axis -90 -45 -2.85299e-015   XYZ
    dof rx rz
    limits (-45.0 45.0)
           (-45.0 45.0)
  end
:hierarchy
  begin
    root lhipjoint rhipjoint lowerback
    lhipjoint lfemur
    lfemur ltibia
    ltibia lfoot
    lfoot ltoes
    rhipjoint rfemur
    rfemur rtibia
    rtibia rfoot
    rfoot rtoes
    lowerback upperback
    upperback thorax
    thorax lowerneck lclavicle rclavicle
    lowerneck upperneck
    upperneck head
    lclavicle lhumerus
    lhumerus lradius
    lradius lwrist
    lwrist lhand lthumb
    lhand lfingers
    rclavicle rhumerus
    rhumerus rradius
    rradius rwrist
    rwrist rhand rthumb
    rhand rfingers
  end

#!OML:ASF I:\salsa\salsa 7_09\Patient 1\Session 1\dancermale.ASF
:FULLY-SPECIFIED
:DEGREES
335
root 11.3344 16.8359 0.291851 -257.118 86.6536 -264.464
lowerback -4.60341 -0.0374854 3.10815
upperback 0.180495 -0.122362 -2.81199
thorax 2.75762 0.0110139 -4.66901
lowerneck -11.7269 -2.13539 1.22902
upperneck 35.9581 -0.665683 -3.78991
head 14.2303 -0.132126 -1.73975
rclavicle 2.11209e-015 2.66371e-014
rhumerus -37.8229 0.0308188 -71.9466
rradius 96.5414
rwrist -54.306
rhand 10.8899 -10.1577
rfingers 7.12502
rthumb 35.9699 -36.4816
lclavicle 2.11209e-015 2.66371e-014
lhumerus -19.494 -0.613217 96.5687
lradius 58.2583
lwrist 44.1495
lhand -13.8382 44.8522
lfingers 7.12502
lthumb 12.2852 -285.529
rfemur -24.0357 -4.23538 18.4824
rtibia 57.646
rfoot -13.906 -6.7229
rtoes 5.45613
lfemur -33.8092 7.2516 -29.2801
ltibia 24.7226
lfoot -1.07674 -6.88546
ltoes -6.70689
336
root 11.1554 16.8639 0.311351 -257.368 86.9696 -264.744
lowerback -4.63498 -0.133978 3.31793
upperback 0.312462 -0.269048 -2.69887
thorax 2.89639 -0.0556259 -4.68168
lowerneck -11.5819 -1.92811 1.22437
upperneck 35.0385 -0.468164 -3.7915
head 13.7866 -0.0785524 -1.69326
rclavicle -9.93923e-017 -2.38542e-015
rhumerus -36.6412 0.690374 -71.6507
rradius 96.6959
rwrist -53.0532
rhand 15.6039 -12.2478
rfingers 7.12502
rthumb 40.4198 -37.3458
lclavicle -9.93923e-017 -2.38542e-015
lhumerus -19.9737 0.587092 96.62
lradius 57.963
lwrist 43.5339
lhand -14.195 44.3248
lfingers 7.12502
lthumb 11.9411 -286.036
rfemur -22.7122 -3.39384 19.052
rtibia 54.4087
rfoot -16.1302 -7.89577
rtoes -0.415011
lfemur -33.9863 7.46589 -28.7553
ltibia 23.6522
lfoot 0.634684 -6.89592
ltoes -7.33224
337
root 10.9712 16.9007 0.33243 -263.442 87.3627 -270.798
lowerback -4.54048 -0.176 3.55237
upperback 0.446912 -0.342146 -2.57685
thorax 2.97433 -0.0862432 -4.69276
lowerneck -11.5151 -1.68505 1.45609
upperneck 34.1345 -0.204107 -4.01809
head 13.3786 0.00697 -1.77135
rclavicle 6.78353e-015 1.86858e-014
rhumerus -35.3789 1.32655 -71.7026
rradius 96.7159
rwrist -51.6665
rhand 4.35029 -6.38006
rfingers 7.12502
rthumb 29.7501 -34.0123
lclavicle 6.78353e-015 1.86858e-014
lhumerus -20.4941 1.68754 96.3812
lradius 57.7701
lwrist 42.9994
lhand -14.5531 43.5635
lfingers 7.12502
lthumb 11.5958 -286.777
rfemur -21.5928 -2.46311 19.7293
rtibia 51.2828
rfoot -17.8418 -9.1932
rtoes -3.83292
lfemur -33.9137 7.40376 -27.8869
ltibia 22.2774
lfoot 2.68213 -5.82827
ltoes -7.03053
338
root 10.786 16.9419 0.352016 -276.122 87.7651 -283.473
lowerback -4.50386 -0.207661 3.88694
upperback 0.62731 -0.408984 -2.44947
thorax 3.13261 -0.108724 -4.75592
lowerneck -11.2223 -1.35655 2.06251
upperneck 32.7447 0.137993 -4.53388
head 12.7287 0.129641 -2.00522
rclavicle -7.90169e-015 -1.13307e-014
rhumerus -33.9297 1.98609 -72.1258
rradius 96.6289
rwrist -50.2627
rhand 2.90721 -5.3761
rfingers 7.12502
rthumb 28.3719 -33.2461
lclavicle -7.90169e-015 -1.13307e-014
lhumerus -20.9884 2.88491 95.84
lradius 57.7346
lwrist 42.1973
lhand -14.5326 42.9858
lfingers 7.12502
lthumb 11.6155 -287.356
rfemur -20.6642 -1.6287 20.4778
rtibia 48.264
rfoot -19.1355 -10.2385
rtoes -4.89272
lfemur -33.7373 6.98557 -26.6576
ltibia 20.8293
lfoot 3.82241 -3.8825
ltoes -10.3238
339
root 10.5956 16.9849 0.369406 -293.281 88.0356 -300.768
lowerback -4.57139 -0.265182 4.24458
upperback 0.769584 -0.516023 -2.30823
thorax 3.30527 -0.150375 -4.82157
lowerneck -11.2041 -1.03099 1.78499
upperneck 31.5842 0.410461 -4.14129
head 12.2585 0.230842 -1.75059
rclavicle -1.04362e-015 -9.34288e-015
rhumerus -32.4548 2.76694 -72.8608
rradius 96.5328
rwrist -49.025
rhand 1.54243 -10.2775
rfingers 7.12502
rthumb 27.0669 -38.3575
lclavicle -1.04362e-015 -9.34288e-015
lhumerus -21.5349 4.21089 95.1076
lradius 57.8777
lwrist 41.2061
lhand -14.4992 42.5539
lfingers 7.12502
lthumb 11.6477 -287.79
rfemur -20.0319 -1.07728 21.209
rtibia 45.4285
rfoot -20.1393 -10.9344
rtoes -4.34812
lfemur -33.9407 6.56576 -25.3658
ltibia 20.0146
lfoot 4.03156 -2.15309
ltoes -14.7679
